<svg width="136" height="30" viewBox="0 0 136 30" fill="none" xmlns="http://www.w3.org/2000/svg">
<path d="M16.1248 0.874439H6.46346C5.38514 0.874439 4.51099 1.74778 4.51099 2.82511V6.65919C4.51099 7.73652 5.38514 8.60986 6.46346 8.60986H16.1248C17.2032 8.60986 18.0773 7.73652 18.0773 6.65919V2.82511C18.0773 1.74778 17.2032 0.874439 16.1248 0.874439Z" fill="#090B16"/>
<path d="M6.42977 28.9238C5.35254 28.9238 4.47729 28.0493 4.47729 26.9731V15.37C4.47729 14.2937 5.35254 13.4193 6.42977 13.4193H24.81C25.8872 13.4193 26.7624 14.2937 26.7624 15.37V19.2377C26.7624 20.3139 25.8872 21.1883 24.81 21.1883H12.2199V27.0067C12.2199 28.083 11.3446 28.9574 10.2674 28.9574H6.39611L6.42977 28.9238Z" fill="#090B16"/>
<path d="M22.4199 2.82511L23.1605 5.01121L25.3486 5.75112L23.1605 6.49103L22.4199 8.67713L21.6793 6.49103L19.4912 5.75112L21.6793 5.01121L22.4199 2.82511Z" fill="#090B16"/>
<path d="M25.5505 0.874439L25.8535 1.78251L26.7624 2.0852L25.8535 2.38789L25.5505 3.29596L25.2475 2.38789L24.3386 2.0852L25.2475 1.78251L25.5505 0.874439Z" fill="#090B16"/>
<path d="M44.0991 6.82735H35.3803C35.01 6.82735 34.707 7.13005 34.707 7.5V22.2982C34.707 22.6682 35.01 22.9709 35.3803 22.9709H36.9288C37.2991 22.9709 37.6021 22.6682 37.6021 22.2982V16.0426H43.3922C43.7625 16.0426 44.0654 15.7399 44.0654 15.37V13.9238C44.0654 13.5538 43.7625 13.2511 43.3922 13.2511H37.6021V9.65247H44.0991C44.4694 9.65247 44.7724 9.34978 44.7724 8.97982V7.53363C44.7724 7.16368 44.4694 6.86099 44.0991 6.86099V6.82735Z" fill="#090B16"/>
<path d="M55.006 13.1839C54.4674 12.6457 53.8615 12.2422 53.1546 11.9395C52.4476 11.6368 51.6734 11.4686 50.8318 11.4686C49.9902 11.4686 49.2159 11.6368 48.509 11.9395C47.8021 12.2422 47.1961 12.6794 46.6575 13.1839C46.1189 13.722 45.715 14.3274 45.412 15.0673C45.109 15.7735 44.9744 16.5471 44.9744 17.3543C44.9744 18.1614 45.109 18.935 45.412 19.6413C45.715 20.3475 46.1189 20.9865 46.6575 21.491C47.1961 22.0292 47.8021 22.4327 48.509 22.7354C49.2159 23.0381 49.9902 23.2063 50.8318 23.2063C51.6734 23.2063 52.414 23.0381 53.1546 22.7354C53.8615 22.4327 54.5011 22.0292 55.006 21.491C55.5447 20.9529 55.9486 20.3475 56.2516 19.6413C56.5546 18.935 56.6892 18.1614 56.6892 17.3543C56.6892 16.5471 56.5546 15.7735 56.2516 15.0673C55.9486 14.361 55.5447 13.722 55.006 13.1839ZM50.8318 20.3812C50.3942 20.3812 49.9902 20.3139 49.6536 20.1457C49.2833 19.9776 48.9803 19.7758 48.7447 19.5067C48.509 19.2377 48.307 18.935 48.1724 18.565C48.0377 18.1951 47.9704 17.7915 47.9704 17.3543C47.9704 16.917 48.0377 16.5135 48.1724 16.1435C48.307 15.7735 48.509 15.4372 48.7447 15.1682C48.9803 14.8991 49.2833 14.6973 49.6536 14.5291C49.9902 14.361 50.3942 14.2937 50.8318 14.2937C51.2694 14.2937 51.6734 14.361 52.01 14.5291C52.3466 14.6973 52.6496 14.8991 52.9189 15.1682C53.1546 15.4372 53.3565 15.7735 53.4912 16.1435C53.6258 16.5135 53.6932 16.917 53.6932 17.3543C53.6932 17.7915 53.6258 18.1951 53.4912 18.565C53.3565 18.935 53.1546 19.2377 52.9189 19.5067C52.6833 19.7758 52.3803 19.9776 52.01 20.1457C51.6734 20.3139 51.2694 20.3812 50.8318 20.3812Z" fill="#090B16"/>
<path d="M63.9605 11.6704H62.21C61.6377 11.6704 61.0318 11.704 60.3585 11.8049C59.7189 11.9058 59.1466 12.0067 58.6417 12.1413C58.3387 12.2085 58.1367 12.4776 58.1367 12.8139V22.3318C58.1367 22.7018 58.4397 23.0045 58.81 23.0045H60.2912C60.6615 23.0045 60.9644 22.7018 60.9644 22.3318V14.5964C61.0991 14.5964 61.2337 14.5628 61.4021 14.5291C61.604 14.5291 61.806 14.4955 62.008 14.4619C62.1763 14.4619 62.3446 14.4619 62.4793 14.4619H63.9268C64.2971 14.4619 64.6001 14.1592 64.6001 13.7892V12.3767C64.6001 12.0067 64.2971 11.704 63.9268 11.704L63.9605 11.6704Z" fill="#090B16"/>
<path d="M80.2537 12.4439C79.8161 12.074 79.2774 11.8049 78.6715 11.6704C77.6279 11.435 76.3824 11.3677 74.9012 11.704C74.3626 11.8386 73.8576 11.9731 73.3864 12.1749C73.0497 11.9395 72.6458 11.7713 72.1745 11.6704C71.1309 11.435 69.9527 11.4013 68.5725 11.6704C67.9665 11.7713 67.2596 11.9058 66.4854 12.0404C66.1487 12.1076 65.9131 12.3767 65.9131 12.713V22.3655C65.9131 22.7354 66.2161 23.0381 66.5864 23.0381H68.0675C68.4378 23.0381 68.7408 22.7354 68.7408 22.3655V14.4955C68.9428 14.4619 69.1448 14.4283 69.3131 14.3946C69.5824 14.361 69.919 14.3274 70.2557 14.3274C70.5923 14.3274 71.0299 14.361 71.2992 14.4283C71.5012 14.4955 71.7032 14.5964 71.8378 14.7309C71.9725 14.8991 72.1071 15.1345 72.1745 15.4372C72.2755 15.8072 72.3091 16.278 72.3091 16.8834V22.3655C72.3091 22.7354 72.6121 23.0381 72.9824 23.0381H74.4636C74.8339 23.0381 75.1368 22.7354 75.1368 22.3655V16.5471C75.1368 16.0762 75.1032 15.6054 75.0359 15.1682C75.0359 15 74.9685 14.8318 74.9349 14.6637C75.1368 14.5964 75.3388 14.5291 75.5408 14.4955C75.9784 14.3946 76.3151 14.361 76.618 14.361C76.921 14.361 77.3586 14.3946 77.6616 14.4619C77.8636 14.5291 78.0319 14.63 78.2002 14.7646C78.3349 14.9327 78.4695 15.1682 78.5368 15.4709C78.6378 15.8408 78.6715 16.3117 78.6715 16.917V22.3991C78.6715 22.7691 78.9745 23.0718 79.3448 23.0718H80.826C81.1963 23.0718 81.4992 22.7691 81.4992 22.3991V16.3453C81.4992 15.4372 81.3982 14.6973 81.1626 14.0583C80.9269 13.4193 80.5903 12.9148 80.1527 12.5112L80.2537 12.4439Z" fill="#090B16"/>
<path d="M96.9844 14.2601H91.4299C91.0596 14.2601 90.7566 14.5628 90.7566 14.9327V16.4126C90.7566 16.7825 91.0596 17.0852 91.4299 17.0852H94.7626V19.8094C94.3923 19.9776 93.9547 20.1121 93.5507 20.1794C92.9784 20.3139 92.3388 20.3812 91.6992 20.3812C91.0596 20.3812 90.319 20.2466 89.6794 20.0112C89.0398 19.7758 88.5012 19.4395 88.0299 18.9686C87.5586 18.4978 87.1547 17.926 86.8854 17.2534C86.616 16.5807 86.4477 15.7735 86.4477 14.8655C86.4477 13.9574 86.5824 13.1502 86.8854 12.4776C87.1547 11.8049 87.5586 11.2332 88.0299 10.7623C88.5012 10.3251 89.0735 9.95516 89.7131 9.71973C90.3527 9.48431 91.0259 9.34978 91.7329 9.34978C92.4398 9.34978 93.2814 9.45067 93.9547 9.61884C94.6279 9.787 95.2339 10.0561 95.7388 10.3587C95.9071 10.4596 96.1091 10.4933 96.3111 10.426C96.5131 10.3587 96.6477 10.2242 96.7487 10.0561L97.3547 8.71076C97.4893 8.40807 97.3883 8.00449 97.0853 7.83632C96.3784 7.3991 95.5705 7.09641 94.6279 6.86099C93.719 6.62556 92.7428 6.52466 91.6992 6.52466C90.6556 6.52466 89.3091 6.72646 88.2992 7.16368C87.2893 7.6009 86.4141 8.17265 85.7071 8.94619C85.0002 9.6861 84.4279 10.5942 84.0576 11.6031C83.6873 12.6121 83.4854 13.6883 83.4854 14.8318C83.4854 15.9753 83.6873 17.0852 84.0576 18.0605C84.4279 19.0695 85.0002 19.9439 85.7071 20.7175C86.4141 21.4574 87.2893 22.0628 88.2992 22.5C89.3091 22.9372 90.4537 23.139 91.6992 23.139C92.9448 23.139 92.7091 23.139 93.2141 23.0381C93.719 22.9709 94.224 22.9036 94.7289 22.7691C95.2339 22.6682 95.7052 22.5 96.1428 22.3318C96.6141 22.1637 97.018 21.9619 97.3883 21.7265C97.5903 21.5919 97.725 21.3901 97.725 21.1547V14.8655C97.725 14.4955 97.422 14.1928 97.0517 14.1928L96.9844 14.2601Z" fill="#090B16"/>
<path d="M109.406 13.1502C108.901 12.6121 108.295 12.1749 107.588 11.9058C106.915 11.6368 106.141 11.4686 105.333 11.4686C104.525 11.4686 103.751 11.6031 103.077 11.9058C102.37 12.2085 101.764 12.6121 101.226 13.1166C100.687 13.6211 100.283 14.2601 99.9803 14.9664C99.6773 15.6726 99.509 16.4798 99.509 17.3206C99.509 18.1614 99.6437 18.935 99.9467 19.6413C100.25 20.3475 100.654 20.9865 101.159 21.491C101.663 22.0292 102.303 22.4327 103.01 22.7354C103.717 23.0381 104.525 23.1726 105.366 23.1726C106.208 23.1726 107.252 23.0718 107.959 22.8363C108.665 22.6345 109.271 22.3655 109.844 22.0628C110.18 21.8946 110.281 21.491 110.113 21.1547L109.44 19.8094C109.339 19.6413 109.204 19.5067 109.002 19.4731C108.834 19.4058 108.632 19.4731 108.463 19.5404C108.093 19.7758 107.622 19.9776 107.117 20.1121C106.612 20.2803 106.04 20.3475 105.366 20.3475C104.693 20.3475 104.525 20.2803 104.188 20.1457C103.852 20.0112 103.549 19.8431 103.279 19.6076C103.01 19.3722 102.808 19.1031 102.673 18.7668C102.606 18.6323 102.572 18.4978 102.505 18.3632H110.214C110.584 18.3632 110.887 18.0605 110.887 17.6906C110.887 16.7152 110.786 15.8408 110.517 15.0673C110.248 14.2937 109.844 13.6211 109.339 13.083L109.406 13.1502ZM103.414 14.8991C103.885 14.4955 104.525 14.2937 105.333 14.2937C106.141 14.2937 106.679 14.4955 107.151 14.8655C107.42 15.1009 107.656 15.37 107.79 15.7399H102.774C102.943 15.4036 103.145 15.1345 103.414 14.8991Z" fill="#090B16"/>
<path d="M120.784 12.4439C120.313 12.074 119.774 11.8049 119.135 11.6704C118.057 11.435 116.778 11.435 115.162 11.6368C114.422 11.7377 113.648 11.8386 112.907 11.9731C112.57 12.0404 112.335 12.3094 112.335 12.6457V22.3318C112.335 22.7018 112.638 23.0045 113.008 23.0045H114.489C114.859 23.0045 115.162 22.7018 115.162 22.3318V14.4619C115.432 14.4283 115.701 14.3946 115.97 14.361C116.913 14.2601 117.654 14.2601 118.192 14.4283C118.428 14.4955 118.63 14.5964 118.798 14.7646C118.966 14.9327 119.101 15.1682 119.202 15.4709C119.303 15.8072 119.37 16.3117 119.37 16.8834V22.3318C119.37 22.7018 119.673 23.0045 120.044 23.0045H121.525C121.895 23.0045 122.198 22.7018 122.198 22.3318V16.278C122.198 15.37 122.063 14.5964 121.828 13.991C121.558 13.352 121.188 12.8475 120.717 12.4439H120.784Z" fill="#090B16"/>
<path d="M131.624 20.2466H129.671C129.065 20.2466 128.628 20.1457 128.426 19.9103C128.291 19.7758 128.089 19.4058 128.089 18.4305V14.4955H131.489C131.859 14.4955 132.162 14.1928 132.162 13.8229V12.4439C132.162 12.074 131.859 11.7713 131.489 11.7713H128.089V8.77803C128.089 8.40807 127.786 8.10538 127.416 8.10538H125.935C125.564 8.10538 125.261 8.40807 125.261 8.77803V11.7713H123.881C123.511 11.7713 123.208 12.074 123.208 12.4439V13.8229C123.208 14.1928 123.511 14.4955 123.881 14.4955H125.261V19.1368C125.261 19.8431 125.362 20.4148 125.564 20.9193C125.766 21.4238 126.103 21.861 126.507 22.1973C126.911 22.5 127.382 22.7354 127.921 22.87C128.426 23.0045 128.998 23.0381 129.638 23.0381H131.59C131.96 23.0381 132.263 22.7354 132.263 22.3655V20.9866C132.263 20.6166 131.96 20.3139 131.59 20.3139L131.624 20.2466Z" fill="#090B16"/>
</svg>
