<svg xmlns="http://www.w3.org/2000/svg" width="18" height="18" viewBox="0 0 18 18" fill="none">
  <g clip-path="url(#clip0_3093_8576)">
    <path d="M8.40514 7.56924C7.65912 8.91253 6.9444 10.2133 6.21476 11.5044C6.02738 11.8358 5.93464 12.1058 6.08433 12.5271C6.49763 13.691 5.9146 14.8236 4.81885 15.1311C3.78547 15.4211 2.77866 14.6937 2.57363 13.5086C2.39194 12.4597 3.15188 11.4315 4.2316 11.2675C4.32202 11.2536 4.41441 11.2521 4.56643 11.2399L6.20879 8.28999C5.17583 7.18982 4.56102 5.90384 4.69707 4.31021C4.79326 3.18375 5.20684 2.21025 5.96269 1.41238C7.41043 -0.115575 9.61908 -0.362979 11.3237 0.8098C12.9609 1.93634 13.7107 4.13066 13.0716 6.00875C12.5896 5.86882 12.1043 5.72768 11.5709 5.57269C11.7716 4.52847 11.6231 3.59082 10.9656 2.78753C10.5312 2.25717 9.97381 1.97919 9.34001 1.87676C8.06933 1.67116 6.82177 2.54555 6.45158 3.88145C6.03139 5.39751 6.66737 6.63596 8.40514 7.56924Z" fill="#747C89"/>
    <path d="M10.5356 5.9807C11.0612 6.97385 11.5949 7.982 12.1238 8.98088C14.7971 8.09497 16.8126 9.68008 17.5357 11.3771C18.4092 13.4271 17.8121 15.855 16.0968 17.1198C14.3362 18.418 12.1096 18.1962 10.5497 16.5285C10.9472 16.172 11.3468 15.814 11.7736 15.4315C13.3143 16.5003 14.6619 16.45 15.6623 15.1843C16.5154 14.1045 16.4969 12.4945 15.619 11.4374C14.606 10.2176 13.249 10.1804 11.6087 11.3514C10.9283 10.0584 10.2361 8.77572 9.57721 7.4734C9.35502 7.03448 9.10977 6.77977 8.609 6.68691C7.77278 6.53161 7.23292 5.76244 7.2005 4.9007C7.16865 4.04846 7.63742 3.27808 8.37008 2.97795C9.09585 2.68054 9.94754 2.92057 10.4357 3.58151C10.8347 4.12151 10.9614 4.72929 10.7515 5.39529C10.6931 5.58101 10.6175 5.76063 10.5356 5.9807Z" fill="#747C89"/>
    <path d="M11.7919 14.0995H8.57374C8.26528 15.4584 7.599 16.5556 6.45101 17.2533C5.55853 17.7955 4.59666 17.9794 3.57291 17.8023C1.68797 17.4767 0.146721 15.6592 0.011018 13.6126C-0.142545 11.2942 1.3452 9.23338 3.32822 8.77051C3.46512 9.30305 3.60349 9.84071 3.74039 10.372C1.92099 11.3663 1.29127 12.619 1.80047 14.1855C2.24871 15.5641 3.522 16.3197 4.90456 16.0275C6.31643 15.7291 7.02828 14.4723 6.94137 12.4552C8.27984 12.4552 9.61943 12.4404 10.958 12.4625C11.4807 12.4713 11.8843 12.4133 12.278 11.9197C12.9263 11.1075 14.1196 11.1808 14.8178 11.9478C15.5313 12.7318 15.4971 13.9931 14.742 14.744C14.0135 15.4685 12.8626 15.4298 12.181 14.6491C12.0409 14.4882 11.9305 14.2971 11.7919 14.0995Z" fill="#747C89"/>
  </g>
  <defs>
    <clipPath id="clip0_3093_8576">
      <rect width="18" height="18" fill="white"/>
    </clipPath>
  </defs>
</svg>