<svg width="24" height="24" viewBox="0 0 24 24" fill="none" xmlns="http://www.w3.org/2000/svg">
<path fill-rule="evenodd" clip-rule="evenodd" d="M11.6676 1.12691C11.8864 1.07719 12.1136 1.07719 12.3324 1.12691C12.5922 1.18595 12.8162 1.32906 12.9242 1.39805C12.9354 1.40523 12.9454 1.4116 12.954 1.417L20.53 6.152C20.9083 6.38844 21.0842 6.84686 20.9612 7.27568C20.8383 7.7045 20.4461 8 20 8H4C3.55389 8 3.16174 7.7045 3.03875 7.27568C2.91577 6.84686 3.0917 6.38844 3.47 6.152L11.046 1.417C11.0546 1.4116 11.0646 1.40523 11.0758 1.39805C11.1838 1.32906 11.4078 1.18595 11.6676 1.12691ZM12 3.17925L7.4868 6H16.5132L12 3.17925ZM6 9C6.55228 9 7 9.44771 7 10V18C7 18.5523 6.55228 19 6 19C5.44772 19 5 18.5523 5 18V10C5 9.44771 5.44772 9 6 9ZM10 9C10.5523 9 11 9.44771 11 10V18C11 18.5523 10.5523 19 10 19C9.44772 19 9 18.5523 9 18V10C9 9.44771 9.44772 9 10 9ZM14 9C14.5523 9 15 9.44771 15 10V18C15 18.5523 14.5523 19 14 19C13.4477 19 13 18.5523 13 18V10C13 9.44771 13.4477 9 14 9ZM18 9C18.5523 9 19 9.44771 19 10V18C19 18.5523 18.5523 19 18 19C17.4477 19 17 18.5523 17 18V10C17 9.44771 17.4477 9 18 9ZM2 21C2 20.4477 2.44772 20 3 20H21C21.5523 20 22 20.4477 22 21C22 21.5523 21.5523 22 21 22H3C2.44772 22 2 21.5523 2 21Z" fill="black"/>
</svg>
