<svg width="24" height="24" viewBox="0 0 24 24" fill="none" xmlns="http://www.w3.org/2000/svg">
<path fill-rule="evenodd" clip-rule="evenodd" d="M9.66438 2.01361C10.2092 2.1044 10.5772 2.61963 10.4864 3.1644L9.84711 7H15.8195L16.5136 2.8356C16.6044 2.29083 17.1196 1.92281 17.6644 2.01361C18.2091 2.1044 18.5772 2.61963 18.4864 3.1644L17.8471 7H20.5C21.0523 7 21.5 7.44772 21.5 8C21.5 8.55229 21.0523 9 20.5 9H17.5138L16.5138 15H19.5C20.0523 15 20.5 15.4477 20.5 16C20.5 16.5523 20.0523 17 19.5 17H16.1804L15.4864 21.1644C15.3956 21.7092 14.8803 22.0772 14.3356 21.9864C13.7908 21.8956 13.4228 21.3804 13.5136 20.8356L14.1528 17H8.18045L7.48638 21.1644C7.39558 21.7092 6.88036 22.0772 6.33559 21.9864C5.79082 21.8956 5.4228 21.3804 5.51359 20.8356L6.15286 17H2.5C1.94772 17 1.5 16.5523 1.5 16C1.5 15.4477 1.94772 15 2.5 15H6.48619L7.48619 9H3.5C2.94772 9 2.5 8.55229 2.5 8C2.5 7.44772 2.94772 7 3.5 7H7.81953L8.51359 2.8356C8.60439 2.29083 9.11961 1.92281 9.66438 2.01361ZM9.51378 9L8.51378 15H14.4862L15.4862 9H9.51378Z" fill="black"/>
</svg>
