<svg width="24" height="24" viewBox="0 0 24 24" fill="none" xmlns="http://www.w3.org/2000/svg">
<path fill-rule="evenodd" clip-rule="evenodd" d="M12.7755 2.75072C13.9071 1.65777 15.4227 1.053 16.9959 1.06667C18.5691 1.08034 20.074 1.71135 21.1864 2.8238C22.2988 3.93625 22.9299 5.44113 22.9435 7.01431C22.9572 8.58749 22.3524 10.1031 21.2595 11.2347L21.2473 11.2471L18.2474 14.247C18.2474 14.247 18.2475 14.2469 18.2474 14.247C17.6392 14.8554 16.9071 15.326 16.101 15.6267C15.2949 15.9274 14.4336 16.0512 13.5754 15.9898C12.7172 15.9283 11.8823 15.683 11.1273 15.2705C10.3723 14.858 9.71478 14.2879 9.19944 13.599C8.86863 13.1567 8.95897 12.53 9.40122 12.1992C9.84347 11.8684 10.4702 11.9588 10.801 12.401C11.1445 12.8603 11.5829 13.2404 12.0862 13.5154C12.5896 13.7904 13.1462 13.9539 13.7183 13.9949C14.2904 14.0359 14.8646 13.9533 15.402 13.7529C15.9394 13.5524 16.4275 13.2387 16.833 12.833L19.8266 9.83934C20.5517 9.08558 20.9527 8.07772 20.9436 7.03169C20.9345 5.9829 20.5138 4.97965 19.7722 4.23802C19.0306 3.49639 18.0273 3.07571 16.9785 3.0666C15.932 3.0575 14.9237 3.45891 14.1698 4.18456L12.4552 5.88917C12.0636 6.27855 11.4304 6.27671 11.041 5.88505C10.6516 5.49338 10.6535 4.86022 11.0452 4.47084L12.7652 2.76084L12.7755 2.75072ZM7.89935 8.37329C8.70546 8.07258 9.56681 7.94876 10.425 8.01022C11.2832 8.07169 12.1181 8.31699 12.8731 8.7295C13.6281 9.14201 14.2856 9.71207 14.801 10.401C15.1318 10.8433 15.0414 11.47 14.5992 11.8008C14.1569 12.1316 13.5302 12.0412 13.1994 11.599C12.8559 11.1397 12.4175 10.7596 11.9142 10.4846C11.4108 10.2096 10.8542 10.0461 10.2821 10.0051C9.71 9.96414 9.13577 10.0467 8.59836 10.2472C8.06095 10.4476 7.57294 10.7613 7.16743 11.167L4.17379 14.1606C3.44875 14.9144 3.0477 15.9223 3.05679 16.9683C3.06591 18.0171 3.48658 19.0204 4.22821 19.762C4.96985 20.5036 5.9731 20.9243 7.02188 20.9334C8.06794 20.9425 9.07582 20.5414 9.82959 19.8164L11.5331 18.1129C11.9236 17.7224 12.5568 17.7224 12.9473 18.1129C13.3378 18.5034 13.3378 19.1366 12.9473 19.5271L11.2373 21.2371L11.2249 21.2493C10.0933 22.3422 8.57768 22.947 7.0045 22.9333C5.43132 22.9197 3.92645 22.2887 2.814 21.1762C1.70155 20.0638 1.07054 18.5589 1.05687 16.9857C1.0432 15.4125 1.64796 13.8969 2.74091 12.7653L2.75309 12.7529L5.75296 9.75302C5.75301 9.75298 5.75292 9.75307 5.75296 9.75302C6.3612 9.1446 7.0933 8.67397 7.89935 8.37329Z" fill="black"/>
</svg>
